<svg xmlns="http://www.w3.org/2000/svg" viewBox="0 0 32 32" fill="none">
  <circle cx="16" cy="16" r="14" fill="#22c55e" opacity="0.15"/>
  <path d="M16 6c-5.5 0-10 4.5-10 10s4.5 10 10 10 10-4.5 10-10S21.5 6 16 6z" fill="#16a34a" opacity="0.3"/>
  <ellipse cx="16" cy="17" rx="7" ry="8" fill="#8B6914"/>
  <ellipse cx="16" cy="16" rx="6" ry="7" fill="#A0782C"/>
  <circle cx="13" cy="15" r="1" fill="#6B5E50"/>
  <circle cx="19" cy="15" r="1" fill="#6B5E50"/>
  <circle cx="16" cy="19" r="1" fill="#6B5E50"/>
  <path d="M12 8c2-3 6-3 8 0" stroke="#16a34a" stroke-width="2" stroke-linecap="round" fill="none"/>
  <path d="M10 9c1-2 3-3 6-2" stroke="#22c55e" stroke-width="1.5" stroke-linecap="round" fill="none"/>
  <path d="M22 9c-1-2-3-3-6-2" stroke="#22c55e" stroke-width="1.5" stroke-linecap="round" fill="none"/>
</svg>
